<?xml version="1.0" encoding="UTF-8" standalone="no"?>
<!-- Created with Inkscape (http://www.inkscape.org/) -->

<svg
   width="210mm"
   height="297mm"
   viewBox="0 0 210 297"
   version="1.1"
   id="svg1"
   xml:space="preserve"
   sodipodi:docname="cachorrosvg.svg"
   inkscape:version="1.4.2 (f4327f4, 2025-05-13)"
   xmlns:inkscape="http://www.inkscape.org/namespaces/inkscape"
   xmlns:sodipodi="http://sodipodi.sourceforge.net/DTD/sodipodi-0.dtd"
   xmlns:xlink="http://www.w3.org/1999/xlink"
   xmlns="http://www.w3.org/2000/svg"
   xmlns:svg="http://www.w3.org/2000/svg"><sodipodi:namedview
     id="namedview1"
     pagecolor="#ffffff"
     bordercolor="#000000"
     borderopacity="0.25"
     inkscape:showpageshadow="2"
     inkscape:pageopacity="0.0"
     inkscape:pagecheckerboard="0"
     inkscape:deskcolor="#d1d1d1"
     inkscape:document-units="mm"
     inkscape:zoom="0.58"
     inkscape:cx="347.41379"
     inkscape:cy="400.86207"
     inkscape:window-width="1366"
     inkscape:window-height="697"
     inkscape:window-x="-8"
     inkscape:window-y="-8"
     inkscape:window-maximized="1"
     inkscape:current-layer="layer1" /><defs
     id="defs1"><linearGradient
       id="linearGradient15"
       inkscape:collect="always"><stop
         style="stop-color:#fcfcfc;stop-opacity:1;"
         offset="0"
         id="stop15" /><stop
         style="stop-color:#fcfcfc;stop-opacity:0;"
         offset="1"
         id="stop16" /></linearGradient><linearGradient
       id="swatch14"
       inkscape:swatch="solid"><stop
         style="stop-color:#000000;stop-opacity:1;"
         offset="0"
         id="stop14" /></linearGradient><linearGradient
       inkscape:collect="always"
       xlink:href="#swatch14"
       id="linearGradient14"
       x1="91.235631"
       y1="156.46912"
       x2="136.85345"
       y2="156.46912"
       gradientUnits="userSpaceOnUse"
       gradientTransform="translate(-0.91235632,2.2808908)" /><linearGradient
       inkscape:collect="always"
       xlink:href="#linearGradient15"
       id="linearGradient16"
       x1="126.81753"
       y1="52.916667"
       x2="171.97917"
       y2="52.916667"
       gradientUnits="userSpaceOnUse"
       gradientTransform="translate(-0.45617818,-1.8247126)" /></defs><g
     inkscape:label="Camada 1"
     inkscape:groupmode="layer"
     id="layer1"><path
       style="opacity:1;fill:#fcfcfc;fill-opacity:1;stroke:#000000;stroke-width:0.8;stroke-dasharray:none;stroke-opacity:1"
       d="m 138.67815,90.323275 c 2.03593,0.211224 -10.94931,15.052835 -11.86063,14.141515 L 109.48275,112.676 98.078305,114.04453 86.67385,112.676 67.514366,105.83332 57.02227,92.604167 52.916665,72.532328 57.934626,47.44253 l 4.561782,-10.035921 3.193246,-5.474137 7.298851,-4.561781 7.755027,-3.649426 6.386494,-1.824713 c 5.711875,-1.130797 13.276434,-0.408911 20.071834,-0.456178 l 16.42241,5.01796 9.12356,8.211205 3.64943,14.141524 4.56178,18.703306 0.45617,11.404452 z"
       id="path1"
       sodipodi:nodetypes="ccccccccccccccccccccc" /><path
       style="opacity:1;fill:#fbfbfb;stroke-width:0.799999;stroke-dasharray:none;stroke:#000000;stroke-opacity:1;fill-opacity:1"
       d="m 63.408763,33.301006 -5.474137,-5.01796 -9.579742,-0.456179 -9.579739,9.579742 -16.422415,14.141524 -3.193247,2.280888 1.824713,10.948278 5.930316,12.772988 5.01796,4.105603 5.017958,3.649424 9.579742,-5.930315 z"
       id="path2" /><path
       style="opacity:1;fill:url(#linearGradient16);fill-opacity:1;stroke:#000000;stroke-width:0.8;stroke-dasharray:none;stroke-opacity:1"
       d="m 171.523,48.354883 -33.30101,-25.089797 -11.40445,3.193247 -0.45618,3.193247 4.1056,2.280891 2.73707,-1.368534 c 0,0 2.73707,1.824712 2.28089,3.649425 -0.45617,1.824712 0,11.404454 0,11.404454 l 8.21121,28.739224 5.93032,4.561782 6.38649,-0.912358 6.3865,-4.561782 z"
       id="path3" /><path
       style="opacity:1;fill:#fcfcfc;stroke-width:0.799999;stroke-dasharray:none;stroke:#000000;stroke-opacity:1;fill-opacity:1"
       d="m 124.08046,104.92097 c 0,0 10.03592,12.773 10.03592,15.96624 0,3.19325 0,6.38649 0,6.38649 l 12.77298,17.79095 7.75503,3.64943 2.73707,4.56178 c 0,0 1.82472,0.91236 2.73707,5.47414 0.91236,4.56178 -1.36853,14.14152 -1.36853,14.14152 l -1.82471,5.01796 6.84267,-6.38649 13.68534,-8.66739 8.21121,-19.61566 -3.64943,-17.79095 -5.47413,-5.01796 -1.82472,0.45618 1.36854,14.14152 c 0,0 -2.73707,10.4921 -4.56178,13.22917 -1.82472,2.73707 -10.4921,11.40446 -10.4921,11.40446 l -1.36853,-1.82472"
       id="path4" /><path
       style="opacity:1;fill:#fdfdfd;stroke-width:0.799999;stroke-dasharray:none;fill-opacity:1;stroke:#000000;stroke-opacity:1"
       d="m 72.988505,106.74569 -8.211206,25.0898 -0.456179,22.8089 3.649425,24.63363 -5.017961,9.57974 -2.280891,3.64942 2.73707,4.10561 3.193248,1.82471 6.842673,1.36853 9.579739,-0.91235 4.561782,-2.73707 4.105603,-8.21121 -3.649424,-28.28304 -20.071839,-37.40661 0.456178,0.45617"
       id="path5" /><path
       style="opacity:0.25;fill:#000000;stroke-width:0.799999;stroke-dasharray:none"
       d="m 88.498562,160.11853 14.597698,10.94828"
       id="path6" /><path
       style="opacity:1;fill:#fdfdfd;fill-opacity:1;stroke:url(#linearGradient14);stroke-width:0.799999;stroke-dasharray:none"
       d="m 90.323275,186.12069 10.492095,0.45618 3.19325,0.91236 5.47414,-21.44038 0.45618,-13.68534 7.29885,-20.52802 14.14152,-15.05387 4.1056,9.12356 0.45618,13.68534 -5.47414,22.80891 -3.19325,14.5977 0.45618,5.93032 3.19325,3.64942 1.36853,5.93032 -3.19324,4.56178 -9.12356,3.64943 -12.77299,-2.73707 -4.56179,-10.03592"
       id="path7" /><path
       style="opacity:0.25;fill:#000000;stroke-width:0.799999;stroke-dasharray:none"
       d="m 72.076148,128.18606 c 0.456178,3.64943 16.878593,31.93247 16.878593,31.93247"
       id="path8"
       sodipodi:nodetypes="cc" /><path
       style="opacity:1;fill:#fafafa;stroke-width:0.799999;stroke-dasharray:none;stroke:#000000;stroke-opacity:1;fill-opacity:1"
       d="m 64.32112,145.97701 c -2.280891,2.28089 -10.492097,9.57974 -10.492097,9.57974 l -2.28089,14.14152 3.649424,6.3865 -8.667385,0.91235 -7.75503,8.21121 -0.456176,0.45618 0.456176,3.19325 2.73707,3.19324 16.422414,2.73707 4.105603,-2.73707"
       id="path9" /><path
       style="opacity:1;fill:#fff6f6;fill-opacity:1;stroke:#000000;stroke-width:0.799999;stroke-dasharray:none;stroke-opacity:1"
       d="m 131.37931,193.41954 12.77299,3.64942 17.33477,-4.56178 -1.82471,-9.57974 -4.10561,-3.64943 4.56178,-10.4921 -2.28088,7.29886"
       id="path10"
       sodipodi:nodetypes="ccccccc" /><path
       style="opacity:0.25;fill:#000000;stroke-width:0.799999;stroke-dasharray:none"
       d="m 67.514366,123.62428 5.930317,-15.51006"
       id="path13"
       sodipodi:nodetypes="cc" /><path
       style="opacity:1;fill:#fcfcfc;fill-opacity:1;stroke:#000000;stroke-width:0.799999;stroke-dasharray:none;stroke-opacity:1"
       d="m 74.813217,50.635775 -6.386494,1.824712 -5.01796,6.842673 2.280891,9.579742 5.01796,3.193246 7.298852,-0.456176 5.474136,-5.930318 0.912357,-4.561782 -1.824712,-6.842673 -4.561781,-2.28089 z"
       id="path16" /><path
       style="opacity:1;fill:#fcfcfc;fill-opacity:1;stroke:#000000;stroke-width:0.799999;stroke-dasharray:none;stroke-opacity:1"
       d="m 121.42867,50.886105 -6.38649,1.824712 -5.01796,6.842673 2.28089,9.579742 5.01796,3.193246 7.29885,-0.456176 5.47414,-5.930318 0.91236,-4.561782 -1.82472,-6.842673 -4.56178,-2.28089 z"
       id="path16-1" /><path
       style="opacity:1;fill:#fcfcfc;fill-opacity:1;stroke:#000000;stroke-width:0.799999;stroke-dasharray:none;stroke-opacity:1"
       d="m 87.586205,75.725575 5.930318,-3.649427 h 6.842667 l 6.38649,1.824714 0.45619,1.824713 -0.91236,6.842672 -5.01796,3.649425 -5.01796,2.737069 -5.474137,-4.105603 -4.105603,-4.105606 z"
       id="path17"
       sodipodi:nodetypes="ccccccccccc" /><path
       style="opacity:1;fill:#fcfcfc;fill-opacity:1;stroke:#000000;stroke-width:0.799999;stroke-dasharray:none;stroke-opacity:1"
       d="m 116.78161,86.67385 -4.10561,5.474137 -5.47414,0.912357 -6.38649,-0.912357 -2.737065,-3.193246 -6.386497,3.649425 -6.84267,-1e-6 -5.930318,-3.193248 -0.912354,-3.193245"
       id="path18"
       sodipodi:nodetypes="ccccccccc" /><path
       style="opacity:1;fill:#fcfcfc;fill-opacity:1;stroke:#000000;stroke-width:0.799999;stroke-dasharray:none;stroke-opacity:1"
       d="m 92.604166,86.21767 8.211204,0.456179"
       id="path19" /></g></svg>
